<?xml version="1.0" encoding="utf-8"?>
<!-- Generator: IcoMoon  -->
<!DOCTYPE svg PUBLIC "-//W3C//DTD SVG 1.1//EN" "http://www.w3.org/Graphics/SVG/1.1/DTD/svg11.dtd">
<svg width="500" height="500" viewBox="0 0 500 500" data-tags="add, list" style="margin-left: 0px; margin-top: 0px; " xmlns="http://www.w3.org/2000/svg" xmlns:xlink="http://www.w3.org/1999/xlink"><metadata><license name="CC BY-SA 3.0" href="http://creativecommons.org/licenses/by-sa/3.0/"></license><author name="Daniel Bruce" href="mailto:daniel@precinct.net"></author></metadata><path d="M 175.246,225.031l-150.00,0.00 c-13.813,0.00-25.00,11.191-25.00,25.00s 11.188,25.00, 25.00,25.00l 150.00,0.00 c 13.805,0.00, 25.00-11.191, 25.00-25.00
		S 189.051,225.031, 175.246,225.031z M 175.246,325.031l-150.00,0.00 c-13.813,0.00-25.00,11.191-25.00,25.00s 11.188,25.00, 25.00,25.00l 150.00,0.00 c 13.805,0.00, 25.00-11.191, 25.00-25.00
		S 189.051,325.031, 175.246,325.031z M 485.246,225.031l-85.00,0.00 l0.00-85.00 c0.00-13.809-11.195-15.00-25.00-15.00c-13.813,0.00-25.00,1.192-25.00,15.00l0.00,85.00 l-82.50,0.00 
		c-13.813,0.00-15.00,11.191-15.00,25.00s 1.188,25.00, 15.00,25.00l 82.50,0.00 l0.00,85.00 c0.00,13.809, 11.188,15.00, 25.00,15.00c 13.805,0.00, 25.00-1.192, 25.00-15.00l0.00-85.00 l 85.00,0.00 
		c 13.805,0.00, 15.00-11.191, 15.00-25.00S 499.051,225.031, 485.246,225.031z M 175.246,125.031l-150.00,0.00 c-13.813,0.00-25.00,11.191-25.00,25.00s 11.188,25.00, 25.00,25.00l 150.00,0.00 
		c 13.805,0.00, 25.00-11.191, 25.00-25.00S 189.051,125.031, 175.246,125.031z"></path></svg>