<?xml version="1.0" encoding="utf-8"?>
<!-- Generator: IcoMoon  -->
<!DOCTYPE svg PUBLIC "-//W3C//DTD SVG 1.1//EN" "http://www.w3.org/Graphics/SVG/1.1/DTD/svg11.dtd">
<svg width="500" height="500" viewBox="0 0 500 500" data-tags="archive, cabinet" style="margin-left: 0px; margin-top: 0px; " xmlns="http://www.w3.org/2000/svg" xmlns:xlink="http://www.w3.org/1999/xlink"><metadata><license name="CC BY-SA 3.0" href="http://creativecommons.org/licenses/by-sa/3.0/"></license><author name="Daniel Bruce" href="mailto:daniel@precinct.net"></author></metadata><path d="M 424.433,125.031c0.00-25.00-24.883-25.00-24.883-25.00L 100.918,100.031 c0.00,0.00-24.883,0.00-24.883,25.00l0.00,25.00 l 348.399,0.00 L 424.434,125.031 z M 349.781,50.031L 150.688,50.031 
		c0.00,0.00-24.883,0.00-24.883,25.00l 248.859,0.00 C 374.664,50.031, 349.781,50.031, 349.781,50.031z M 474.203,150.031
		c-14.726-14.797-14.726-14.797-14.726-14.797l0.00,39.797 L 40.992,175.031 l0.00-39.797 c0.00,0.00,0.00,0.00-14.726,14.797S 0.985,168.801, 6.914,200.051
		c 5.899,31.129, 34.457,201.875, 38.703,224.984c 4.66,25.328, 30.418,24.996, 30.418,24.996l 348.399,0.00 c0.00,0.00, 25.754,0.332, 30.414-24.996
		c 4.246-23.11, 32.797-193.856, 38.707-224.984C 499.481,168.801, 488.93,164.828, 474.203,150.031z M 349.769,285.031
		c0.00,0.00,0.00,25.00-24.883,25.00L 175.578,310.031 c-24.883,0.00-24.883-25.00-24.883-25.00l0.00-50.00 l 34.84,0.00 l0.00,40.00 l 129.328,0.00 l0.00-40.00 l 34.906,0.00 L 349.769,285.031 z"></path></svg>