<?xml version="1.0" encoding="utf-8"?>
<!-- Generator: IcoMoon  -->
<!DOCTYPE svg PUBLIC "-//W3C//DTD SVG 1.1//EN" "http://www.w3.org/Graphics/SVG/1.1/DTD/svg11.dtd">
<svg width="500" height="500" viewBox="0 0 500 500" data-tags="browser, window" style="margin-left: 0px; margin-top: 0px; " xmlns="http://www.w3.org/2000/svg" xmlns:xlink="http://www.w3.org/1999/xlink"><metadata><license name="CC BY-SA 3.0" href="http://creativecommons.org/licenses/by-sa/3.0/"></license><author name="Daniel Bruce" href="mailto:daniel@precinct.net"></author></metadata><path d="M 449.231,50.028L 49.239,50.028 c-27.50,0.00-50.00,22.50-50.00,50.00l0.00,300.004 c0.00,27.50, 22.50,50.00, 50.00,50.00l 399.992,0.00 c 27.50,0.00, 50.00-22.50, 50.00-50.00L 499.231,100.028 
	C 499.231,72.528, 476.731,50.028, 449.231,50.028z M 114.239,96.781c 10.36,0.00, 18.75,8.164, 18.75,18.246s-8.39,18.246-18.75,18.246
	c-10.364,0.00-18.75-8.164-18.75-18.246S 103.875,96.781, 114.239,96.781z M 45.489,115.028c0.00-10.082, 8.386-18.246, 18.75-18.246
	c 10.36,0.00, 18.75,8.164, 18.75,18.246s-8.39,18.246-18.75,18.246C 53.875,133.274, 45.489,125.109, 45.489,115.028z M 449.731,400.031
	L 48.739,400.031 L 48.739,170.028 l 400.992,0.00 L 449.731,400.031 z M 449.731,130.028L 149.238,130.028 l0.00-30.00 l 300.492,0.00 L 449.731,130.028 z"></path></svg>