<?xml version="1.0" encoding="utf-8"?>
<!-- Generator: IcoMoon  -->
<!DOCTYPE svg PUBLIC "-//W3C//DTD SVG 1.1//EN" "http://www.w3.org/Graphics/SVG/1.1/DTD/svg11.dtd">
<svg width="512" height="512" viewBox="0 0 512 512" data-tags="calculate, sum, calculator, compute" style="margin-left: 0px; margin-top: 0px; " xmlns="http://www.w3.org/2000/svg" xmlns:xlink="http://www.w3.org/1999/xlink"><metadata><license name="CC BY-SA 3.0" href="http://creativecommons.org/licenses/by-sa/3.0/"></license><author name="Keyamoon" href="http://keyamoon.com/"></author></metadata><path d="M 192.00,0.00L 32.00,0.00 C 14.40,0.00,0.00,14.40,0.00,32.00l0.00,160.00 c0.00,17.60, 14.398,32.00, 32.00,32.00l 160.00,0.00 c 17.60,0.00, 32.00-14.40, 32.00-32.00L 224.00,32.00 C 224.00,14.40, 209.60,0.00, 192.00,0.00z M 192.00,128.00
		L 32.00,128.00 L 32.00,96.00 l 160.00,0.00 L 192.00,128.00 zM 480.00,0.00L 320.00,0.00 c-17.602,0.00-32.00,14.40-32.00,32.00l0.00,448.00 c0.00,17.60, 14.398,32.00, 32.00,32.00l 160.00,0.00 c 17.60,0.00, 32.00-14.40, 32.00-32.00L 512.00,32.00 C 512.00,14.40, 497.60,0.00, 480.00,0.00z
		 M 480.00,320.00L 320.00,320.00 l0.00-32.00 l 160.00,0.00 L 480.00,320.00 z M 480.00,224.00L 320.00,224.00 l0.00-32.00 l 160.00,0.00 L 480.00,224.00 zM 192.00,288.00L 32.00,288.00 C 14.40,288.00,0.00,302.40,0.00,320.00l0.00,160.00 c0.00,17.60, 14.398,32.00, 32.00,32.00l 160.00,0.00 c 17.60,0.00, 32.00-14.40, 32.00-32.00L 224.00,320.00 C 224.00,302.40, 209.60,288.00, 192.00,288.00
		z M 192.00,416.00l-64.00,0.00 l0.00,64.00 L 96.00,480.00 l0.00-64.00 L 32.00,416.00 l0.00-32.00 l 64.00,0.00 l0.00-64.00 l 32.00,0.00 l0.00,64.00 l 64.00,0.00 L 192.00,416.00 z"></path></svg>