<?xml version="1.0" encoding="utf-8"?>
<!-- Generator: IcoMoon  -->
<!DOCTYPE svg PUBLIC "-//W3C//DTD SVG 1.1//EN" "http://www.w3.org/Graphics/SVG/1.1/DTD/svg11.dtd">
<svg width="512" height="512" viewBox="0 0 512 512" data-tags="cloud, weather" style="margin-left: 0px; margin-top: 0px; " xmlns="http://www.w3.org/2000/svg" xmlns:xlink="http://www.w3.org/1999/xlink"><metadata><license name="CC BY-SA 3.0" href="http://creativecommons.org/licenses/by-sa/3.0/us/"></license><author name="P.J. Onori" href="http://somerandomdude.com"></author></metadata><path d="M 384.00,160.00c-6.064,0.00-11.808,0.976-17.632,1.776C 344.064,122.336, 302.816,96.00, 256.00,96.00c-47.808,0.00-89.056,26.656-111.056,65.60
		C 139.312,160.848, 133.68,160.00, 128.00,160.00c-70.56,0.00-128.00,57.408-128.00,128.00c0.00,70.624, 57.44,128.00, 128.00,128.00l 256.00,0.00 c 70.56,0.00, 128.00-57.376, 128.00-128.00C 512.00,217.408, 454.56,160.00, 384.00,160.00z M 384.00,352.00L 128.00,352.00 
		c-35.312,0.00-64.00-28.752-64.00-64.00c0.00-35.088, 31.056-62.16, 64.064-63.12c 0.128,15.088, 2.752,29.904, 8.00,43.904l 59.936-22.432
		C 193.312,239.248, 192.00,231.712, 192.00,224.00c0.00-35.28, 28.688-64.00, 64.00-64.00c 20.688,0.00, 39.44,10.256, 51.184,26.224C 276.32,209.60, 256.00,246.32, 256.00,288.00l 64.00,0.00 
		c0.00-35.28, 28.688-64.00, 64.00-64.00s 64.00,28.72, 64.00,64.00C 448.00,323.248, 419.312,352.00, 384.00,352.00z"></path></svg>