<?xml version="1.0" encoding="utf-8"?>
<!-- Generator: IcoMoon  -->
<!DOCTYPE svg PUBLIC "-//W3C//DTD SVG 1.1//EN" "http://www.w3.org/Graphics/SVG/1.1/DTD/svg11.dtd">
<svg width="500" height="500" viewBox="0 0 500 500" data-tags="cloud" style="margin-left: 0px; margin-top: 0px; " xmlns="http://www.w3.org/2000/svg" xmlns:xlink="http://www.w3.org/1999/xlink"><metadata><license name="CC BY-SA 3.0" href="http://creativecommons.org/licenses/by-sa/3.0/"></license><author name="Daniel Bruce" href="mailto:daniel@precinct.net"></author></metadata><path d="M 380.555,178.539c-6.894,0.00-13.64,0.594-20.215,1.699c-16.406-53.625-67.215-92.707-127.391-92.707
		c-73.449,0.00-132.981,58.203-132.981,130.012c0.00,6.406, 0.50,12.703, 1.418,18.867c-3.527-0.403-7.09-0.676-10.723-0.676
		c-49.941,0.00-90.43,39.582-90.43,88.398c0.00,48.821, 40.489,88.398, 90.43,88.398l 289.89,0.00 
		c 66.106,0.00, 119.68-52.383, 119.68-117.00C 500.235,230.922, 446.66,178.539, 380.555,178.539z"></path></svg>