<?xml version="1.0" encoding="utf-8"?>
<!-- Generator: IcoMoon  -->
<!DOCTYPE svg PUBLIC "-//W3C//DTD SVG 1.1//EN" "http://www.w3.org/Graphics/SVG/1.1/DTD/svg11.dtd">
<svg width="512" height="512" viewBox="0 0 512 512" data-tags="comments, chat, bubble, message, talk, _new" style="margin-left: 0px; margin-top: 0px; " xmlns="http://www.w3.org/2000/svg" xmlns:xlink="http://www.w3.org/1999/xlink"><metadata><license name="CC BY-SA 3.0" href="http://creativecommons.org/licenses/by-sa/3.0/"></license><author name="Keyamoon" href="http://keyamoon.com/"></author></metadata><path d="M 464.00,128.00L 176.00,128.00 c-26.40,0.00-48.00,21.60-48.00,48.00l0.00,224.00 c0.00,26.40, 21.60,48.00, 48.00,48.00l 80.00,0.00 l 64.00,64.00l 64.00-64.00l 80.00,0.00 c 26.40,0.00, 48.00-21.60, 48.00-48.00L 512.00,176.00 
		C 512.00,149.60, 490.401,128.00, 464.00,128.00zM 384.00,48.00c0.00-26.40-21.60-48.00-48.00-48.00L 48.00,0.00 C 21.60,0.00,0.00,21.60,0.00,48.00l0.00,224.00 c0.00,26.40, 21.60,48.00, 48.00,48.00l 16.00,0.00 L 64.00,112.00 c0.00-26.51, 21.49-48.00, 48.00-48.00l 272.00,0.00 L 384.00,48.00 z"></path></svg>