<?xml version="1.0" encoding="utf-8"?>
<!-- Generator: IcoMoon  -->
<!DOCTYPE svg PUBLIC "-//W3C//DTD SVG 1.1//EN" "http://www.w3.org/Graphics/SVG/1.1/DTD/svg11.dtd">
<svg width="512" height="512" viewBox="0 0 512 512" data-tags="comments, chat, bubble, message, talk" style="margin-left: 0px; margin-top: 0px; " xmlns="http://www.w3.org/2000/svg" xmlns:xlink="http://www.w3.org/1999/xlink"><metadata><license name="CC BY-SA 3.0" href="http://creativecommons.org/licenses/by-sa/3.0/"></license><author name="Keyamoon" href="http://keyamoon.com/"></author></metadata><path d="M 480.00,64.00L 32.00,64.00 C 14.40,64.00,0.00,78.40,0.00,96.00l0.00,224.00 c0.00,17.60, 14.40,32.00, 32.00,32.00l 64.00,0.00 l0.00,96.00 l 72.00-96.00l 312.00,0.00 c 17.60,0.00, 32.00-14.40, 32.00-32.00L 512.00,96.00 
	C 512.00,78.40, 497.60,64.00, 480.00,64.00z M 160.00,256.00L 96.00,256.00 l0.00-64.00 l 64.00,0.00 L 160.00,256.00 z M 288.00,256.00l-64.00,0.00 l0.00-64.00 l 64.00,0.00 L 288.00,256.00 z M 416.00,256.00l-64.00,0.00 l0.00-64.00 l 64.00,0.00 L 416.00,256.00 z"></path></svg>