<?xml version="1.0" encoding="utf-8"?>
<!-- Generator: IcoMoon  -->
<!DOCTYPE svg PUBLIC "-//W3C//DTD SVG 1.1//EN" "http://www.w3.org/Graphics/SVG/1.1/DTD/svg11.dtd">
<svg width="500" height="500" viewBox="0 0 500 500" data-tags="contact, add, friend" style="margin-left: 0px; margin-top: 0px; " xmlns="http://www.w3.org/2000/svg" xmlns:xlink="http://www.w3.org/1999/xlink"><metadata><license name="CC BY-SA 3.0" href="http://creativecommons.org/licenses/by-sa/3.0/"></license><author name="Daniel Bruce" href="mailto:daniel@precinct.net"></author></metadata><path d="M 309.656,361.226C 247.375,338.769, 227.476,319.82, 227.476,279.25c0.00-24.352, 19.008-16.395, 27.36-60.996
		c 3.465-18.496, 20.262-0.297, 23.473-42.535c0.00-16.828-9.168-21.015-9.168-21.015s 4.664-24.906, 6.484-44.078
		c 2.265-23.887-13.945-85.594-100.391-85.594c-86.442,0.00-102.656,61.707-100.386,85.594
		c 1.821,19.172, 6.481,44.078, 6.481,44.078s-9.172,4.188-9.172,21.015c 3.219,42.239, 20.012,24.039, 23.473,42.535
		c 8.36,44.602, 27.367,36.645, 27.367,60.996c0.00,40.571-19.902,59.52-82.188,81.977c-7.496,2.703-25.375,6.906-40.574,13.465
		l0.00,100.34 l 400.00,0.00 c0.00,0.00,0.00-36.98,0.00-52.633C 400.235,406.735, 372.137,383.765, 309.656,361.226z M 425.235,225.031l0.00-75.00 l-50.00,0.00 l0.00,75.00 l-75.00,0.00 l0.00,50.00 
		l 75.00,0.00 l0.00,75.00 l 50.00,0.00 l0.00-75.00 l 75.00,0.00 l0.00-50.00 L 425.235,225.031 z"></path></svg>