<?xml version="1.0" encoding="utf-8"?>
<!-- Generator: IcoMoon  -->
<!DOCTYPE svg PUBLIC "-//W3C//DTD SVG 1.1//EN" "http://www.w3.org/Graphics/SVG/1.1/DTD/svg11.dtd">
<svg width="512" height="512" viewBox="0 0 512 512" data-tags="document_stroke, file" style="margin-left: 0px; margin-top: 0px; " xmlns="http://www.w3.org/2000/svg" xmlns:xlink="http://www.w3.org/1999/xlink"><metadata><license name="CC BY-SA 3.0" href="http://creativecommons.org/licenses/by-sa/3.0/us/"></license><author name="P.J. Onori" href="http://somerandomdude.com"></author></metadata><path d="M 352.256,0.00L0.00,0.00 l0.00,511.008 l 128.816-105.248L 257.12,512.00l 128.192-106.128L 512.00,511.744L 512.00,160.00 L 352.256,0.00z M 448.32,383.008
		l-63.248-51.632l-127.936,105.872l-127.68-105.744l-65.376,51.504c0.00,0.00,0.00-277.744,0.00-320.00c 33.632,0.00, 124.944,0.00, 192.128,0.00l0.00,192.00 L 448.32,255.008 
		C 448.32,298.688, 448.32,383.008, 448.32,383.008z M 320.256,191.008c0.00-24.688,0.00-94.624,0.00-128.00c 25.872,25.872, 102.432,102.368, 128.064,128.00
		C 415.568,191.008, 345.12,191.008, 320.256,191.008z"></path></svg>