<?xml version="1.0" encoding="utf-8"?>
<!-- Generator: IcoMoon  -->
<!DOCTYPE svg PUBLIC "-//W3C//DTD SVG 1.1//EN" "http://www.w3.org/Graphics/SVG/1.1/DTD/svg11.dtd">
<svg width="500" height="500" viewBox="0 0 500 500" data-tags="download" style="margin-left: 0px; margin-top: 0px; " xmlns="http://www.w3.org/2000/svg" xmlns:xlink="http://www.w3.org/1999/xlink"><metadata><license name="CC BY-SA 3.0" href="http://creativecommons.org/licenses/by-sa/3.0/"></license><author name="Daniel Bruce" href="mailto:daniel@precinct.net"></author></metadata><path d="M 385.238,160.535l-75.00,0.00 L 310.238,37.531 l-120.00,0.00 L 190.238,160.535 l-75.00,0.00 l 135.00,126.996L 385.238,160.535z M 483.726,326.09L 404.133,272.531l-49.078,0.00 
		L 440.063,337.75L 351.449,337.75 c-2.539,0.00-4.844,1.285-5.989,3.317l-20.43,55.879L 175.422,396.946 l-20.43-55.879
		c-1.133-2.031-3.446-3.317-5.984-3.317L 60.395,337.75 l 85.019-65.219l-49.094,0.00 L 16.742,326.09c-11.844,7.071-18.926,23.375-15.75,36.227
		l 14.031,76.847c 3.183,12.851, 17.265,23.367, 31.289,23.367l 407.844,0.00 c 14.024,0.00, 28.102-10.515, 31.289-23.367l 14.024-76.847
		C 502.66,349.465, 495.57,333.16, 483.726,326.09z"></path></svg>