<?xml version="1.0" encoding="utf-8"?>
<!-- Generator: IcoMoon  -->
<!DOCTYPE svg PUBLIC "-//W3C//DTD SVG 1.1//EN" "http://www.w3.org/Graphics/SVG/1.1/DTD/svg11.dtd">
<svg width="500" height="500" viewBox="0 0 500 500" data-tags="export, out" style="margin-left: 0px; margin-top: 0px; " xmlns="http://www.w3.org/2000/svg" xmlns:xlink="http://www.w3.org/1999/xlink"><metadata><license name="CC BY-SA 3.0" href="http://creativecommons.org/licenses/by-sa/3.0/"></license><author name="Daniel Bruce" href="mailto:daniel@precinct.net"></author></metadata><path d="M 375.235,395.031l-325.00,0.00 l0.00-225.00 l 64.871,0.00 c0.00,0.00, 17.238-22.422, 54.25-50.00L 25.235,120.031 c-13.809,0.00-25.00,11.191-25.00,25.00l0.00,275.00 
		c0.00,13.813, 11.191,25.00, 25.00,25.00l 375.00,0.00 c 13.809,0.00, 25.00-11.188, 25.00-25.00l0.00-93.66 l-50.00,41.121L 375.235,395.031 z M 334.285,221.278l0.00,88.754 l 165.949-130.019
		L 334.285,55.031l0.00,78.261 c-201.551,0.00-201.551,199.238-201.551,199.238C 189.774,238.824, 224.883,221.278, 334.285,221.278z"></path></svg>