<?xml version="1.0" encoding="utf-8"?>
<!-- Generator: IcoMoon  -->
<!DOCTYPE svg PUBLIC "-//W3C//DTD SVG 1.1//EN" "http://www.w3.org/Graphics/SVG/1.1/DTD/svg11.dtd">
<svg width="512" height="512" viewBox="0 0 512 512" data-tags="eye, views" style="margin-left: 0px; margin-top: 0px; " xmlns="http://www.w3.org/2000/svg" xmlns:xlink="http://www.w3.org/1999/xlink"><metadata><license name="CC BY-SA 3.0" href="http://creativecommons.org/licenses/by-sa/3.0/"></license><author name="Keyamoon" href="http://keyamoon.com/"></author></metadata><path d="M 256.00,96.00C 144.341,96.00, 47.559,161.021,0.00,256.00c 47.559,94.979, 144.341,160.00, 256.00,160.00c 111.657,0.00, 208.439-65.021, 256.00-160.00
	C 464.442,161.021, 367.657,96.00, 256.00,96.00z M 256.00,302.189c-25.51,0.00-46.189-20.682-46.189-46.189s 20.681-46.189, 46.189-46.189
	s 46.188,20.681, 46.188,46.189C 302.19,281.51, 281.509,302.189, 256.00,302.189z M 121.171,344.639
	C 86.304,322.398, 57.231,291.963, 36.35,256.00c 20.88-35.963, 49.953-66.397, 84.821-88.639c 19.81-12.635, 41.182-22.406, 63.521-29.043
	c 11.229-3.334, 22.684-5.862, 34.281-7.586C 164.881,146.698, 125.40,196.734, 125.40,256.00c0.00,59.266, 39.481,109.303, 93.575,125.268
	c-11.60-1.723-23.052-4.25-34.282-7.586C 162.353,367.045, 140.981,357.273, 121.171,344.639z M 390.827,344.639
	c-19.811,12.637-41.183,22.406-63.521,29.043c-11.229,3.336-22.685,5.862-34.28,7.586C 347.117,365.303, 386.60,315.266, 386.60,256.00
	c0.00-59.266-39.481-109.303-93.574-125.268c 11.598,1.724, 23.051,4.252, 34.28,7.586c 22.341,6.637, 43.713,16.408, 63.521,29.043
	c 34.868,22.24, 63.94,52.676, 84.822,88.639C 454.769,291.963, 425.697,322.396, 390.827,344.639z"></path></svg>