<?xml version="1.0" encoding="utf-8"?>
<!-- Generator: IcoMoon  -->
<!DOCTYPE svg PUBLIC "-//W3C//DTD SVG 1.1//EN" "http://www.w3.org/Graphics/SVG/1.1/DTD/svg11.dtd">
<svg width="512" height="512" viewBox="0 0 512 512" data-tags="facebook, social" style="margin-left: 0px; margin-top: 0px; " xmlns="http://www.w3.org/2000/svg" xmlns:xlink="http://www.w3.org/1999/xlink"><metadata><license name="CC BY-SA 3.0" href="http://creativecommons.org/licenses/by-sa/3.0/"></license><author name="Keyamoon" href="http://keyamoon.com/"></author></metadata><path d="M 426.672,0.00L 85.342,0.00 C 38.406,0.00,0.00,38.407,0.00,85.344l0.00,341.313 C0.00,473.626, 38.406,512.00, 85.342,512.00l 170.654,0.00 L 255.996,319.50 l-64.00,0.00 L 191.996,240.00 l 64.00,0.00 l0.00-40.00 
	c0.00-57.344, 43.063-104.001, 96.004-104.001l 64.00,0.00 l0.00,79.25 l-64.00,0.00 c-7.551,0.00-16.00,10.266-16.00,24.00L 336.00,240.00 l 80.00,0.00 l0.00,79.50 l-80.00,0.00 l0.00,192.499 l 90.672,0.00 
	c 46.937,0.00, 85.328-38.373, 85.328-85.344L 512.00,85.344 C 512.00,38.407, 473.609,0.00, 426.672,0.00z"></path></svg>