<?xml version="1.0" encoding="utf-8"?>
<!-- Generator: IcoMoon  -->
<!DOCTYPE svg PUBLIC "-//W3C//DTD SVG 1.1//EN" "http://www.w3.org/Graphics/SVG/1.1/DTD/svg11.dtd">
<svg width="500" height="500" viewBox="0 0 500 500" data-tags="feather, blog, write" style="margin-left: 0px; margin-top: 0px; " xmlns="http://www.w3.org/2000/svg" xmlns:xlink="http://www.w3.org/1999/xlink"><metadata><license name="CC BY-SA 3.0" href="http://creativecommons.org/licenses/by-sa/3.0/"></license><author name="Daniel Bruce" href="mailto:daniel@precinct.net"></author></metadata><path d="M 428.637,16.015C 350.629,10.344, 289.183,22.746, 236.606,75.324C 142.625,169.304, 107.00,239.938, 63.821,332.242
	c0.00,0.00-20.137,42.648-60.926,132.894c-8.469,18.73, 17.949,25.699, 24.129,15.265C 65.511,415.422, 101.801,357.375, 101.801,357.375
	c 111.121,37.918, 173.691-23.215, 199.336-42.679c-70.051,4.856-118.457-45.664-118.457-45.664s 173.594,3.008, 219.832-65.43
	C 323.793,197.086, 266.00,164.504, 266.00,164.504s 159.121-20.762, 170.059-33.711c 10.926-12.945, 21.102-39.722, 20.262-48.789
	C 454.192,59.234, 552.308,25.00, 428.637,16.015z"></path></svg>