<?xml version="1.0" encoding="utf-8"?>
<!-- Generator: IcoMoon  -->
<!DOCTYPE svg PUBLIC "-//W3C//DTD SVG 1.1//EN" "http://www.w3.org/Graphics/SVG/1.1/DTD/svg11.dtd">
<svg width="512" height="512" viewBox="0 0 512 512" data-tags="file-xml, file, format, code, html, xml" style="margin-left: 0px; margin-top: 0px; " xmlns="http://www.w3.org/2000/svg" xmlns:xlink="http://www.w3.org/1999/xlink"><metadata><license name="CC BY-SA 3.0" href="http://creativecommons.org/licenses/by-sa/3.0/"></license><author name="Keyamoon" href="http://keyamoon.com/"></author></metadata><path d="M 449.735,105.438l-75.173-87.703C 365.751,7.458, 349.533,0.00, 336.00,0.00L 80.00,0.00 C 62.355,0.00, 48.00,14.355, 48.00,32.00l0.00,448.00 c0.00,17.645, 14.354,32.00, 32.00,32.00
		l 352.00,0.00 c 17.645,0.00, 32.00-14.355, 32.00-32.00L 464.00,144.00 C 464.00,131.298, 458.00,115.08, 449.735,105.438z M 352.00,20.367c 4.142,2.112, 7.88,4.826, 10.412,7.781
		l 75.175,87.704c 2.649,3.092, 5.069,7.469, 6.913,12.148L 352.00,128.00 L 352.00,20.367 z M 448.00,480.00c0.00,8.80-7.20,16.00-16.00,16.00L 80.00,496.00 c-8.80,0.00-16.00-7.20-16.00-16.00L 64.00,32.00 
		c0.00-8.80, 7.20-16.00, 16.00-16.00l 256.00,0.00 l0.00,128.00 l 112.00,0.00 L 448.00,480.00 zM 224.00,288.00L 192.00,256.00L 96.00,352.00L 192.00,448.00L 224.00,416.00L 160.00,352.00 	zM 288.00,416.00L 320.00,448.00L 416.00,352.00L 320.00,256.00L 288.00,288.00L 352.00,352.00 	z"></path></svg>