<?xml version="1.0" encoding="utf-8"?>
<!-- Generator: IcoMoon  -->
<!DOCTYPE svg PUBLIC "-//W3C//DTD SVG 1.1//EN" "http://www.w3.org/Graphics/SVG/1.1/DTD/svg11.dtd">
<svg width="512" height="512" viewBox="0 0 512 512" data-tags="file-css, file, format, code, css" style="margin-left: 0px; margin-top: 0px; " xmlns="http://www.w3.org/2000/svg" xmlns:xlink="http://www.w3.org/1999/xlink"><metadata><license name="CC BY-SA 3.0" href="http://creativecommons.org/licenses/by-sa/3.0/"></license><author name="Keyamoon" href="http://keyamoon.com/"></author></metadata><path d="M 449.735,105.438l-75.173-87.703C 365.751,7.458, 349.533,0.00, 336.00,0.00L 80.00,0.00 C 62.355,0.00, 48.00,14.355, 48.00,32.00l0.00,448.00 c0.00,17.645, 14.354,32.00, 32.00,32.00
		l 352.00,0.00 c 17.645,0.00, 32.00-14.355, 32.00-32.00L 464.00,144.00 C 464.00,131.298, 458.00,115.08, 449.735,105.438z M 352.00,20.367c 4.142,2.112, 7.88,4.826, 10.412,7.781
		l 75.175,87.704c 2.649,3.092, 5.069,7.469, 6.913,12.148L 352.00,128.00 L 352.00,20.367 z M 448.00,480.00c0.00,8.80-7.20,16.00-16.00,16.00L 80.00,496.00 c-8.80,0.00-16.00-7.20-16.00-16.00L 64.00,32.00 
		c0.00-8.80, 7.20-16.00, 16.00-16.00l 256.00,0.00 l0.00,128.00 l 112.00,0.00 L 448.00,480.00 zM 192.00,288.00l0.00-64.00 c0.00-8.477, 3.348-16.493, 9.427-22.573C 207.507,195.348, 215.523,192.00, 224.00,192.00l0.00-32.00 c-35.20,0.00-64.00,28.80-64.00,64.00l0.00,48.00 
		c0.00,8.837-7.164,16.00-16.00,16.00l-16.00,0.00 l0.00,32.00 l 16.00,0.00 c 8.837,0.00, 16.00,7.163, 16.00,16.00l0.00,48.00 c0.00,35.20, 28.80,64.00, 64.00,64.00l0.00-32.00 c-8.477,0.00-16.494-3.348-22.573-9.428
		C 195.348,400.493, 192.00,392.477, 192.00,384.00l0.00-64.00 c0.00-8.837-7.164-16.00-16.00-16.00C 184.837,304.00, 192.00,296.837, 192.00,288.00zM 320.00,320.00l0.00,64.00 c0.00,8.477-3.348,16.493-9.427,22.572C 304.494,412.652, 296.478,416.00, 288.00,416.00l0.00,32.00 c 35.201,0.00, 64.00-28.80, 64.00-64.00l0.00-48.00 
		c0.00-8.837, 7.164-16.00, 16.00-16.00l 16.00,0.00 l0.00-32.00 l-16.00,0.00 c-8.836,0.00-16.00-7.163-16.00-16.00l0.00-48.00 c0.00-35.20-28.799-64.00-64.00-64.00l0.00,32.00 c 8.478,0.00, 16.494,3.348, 22.573,9.428
		C 316.653,207.507, 320.00,215.523, 320.00,224.00l0.00,64.00 c0.00,8.837, 7.164,16.00, 16.00,16.00C 327.164,304.00, 320.00,311.163, 320.00,320.00z"></path></svg>