<?xml version="1.0" encoding="utf-8"?>
<!-- Generator: IcoMoon  -->
<!DOCTYPE svg PUBLIC "-//W3C//DTD SVG 1.1//EN" "http://www.w3.org/Graphics/SVG/1.1/DTD/svg11.dtd">
<svg width="512" height="512" viewBox="0 0 512 512" data-tags="fire, flame, hot, popular" style="margin-left: 0px; margin-top: 0px; " xmlns="http://www.w3.org/2000/svg" xmlns:xlink="http://www.w3.org/1999/xlink"><metadata><license name="CC BY-SA 3.0" href="http://creativecommons.org/licenses/by-sa/3.0/"></license><author name="Keyamoon" href="http://keyamoon.com/"></author></metadata><path d="M 160.504,512.00C 51.878,450.779, 23.279,392.832, 39.63,313.689c 12.071-58.44, 56.647-105.986, 60.437-164.314
	c 16.884,30.726, 18.888,52.882, 20.775,84.99C 174.542,168.572, 230.231,80.522, 218.19,0.00c0.00,0.00, 133.808,64.00, 142.986,188.138
	c 12.041-25.587, 12.041-66.225,0.00-92.563c 36.122,26.339, 253.609,260.16-22.577,416.425c 51.926-101.105, 13.396-237.527-76.761-300.533
	c 6.021,27.092-1.505,97.832-41.391,142.232c 9.031-45.904-13.546-75.254-13.546-75.254s-7.402,41.555-36.122,83.533
	C 144.553,400.311, 126.381,440.996, 160.504,512.00z"></path></svg>