<?xml version="1.0" encoding="utf-8"?>
<!-- Generator: IcoMoon  -->
<!DOCTYPE svg PUBLIC "-//W3C//DTD SVG 1.1//EN" "http://www.w3.org/Graphics/SVG/1.1/DTD/svg11.dtd">
<svg width="512" height="512" viewBox="0 0 512 512" data-tags="gift, present, birthday" style="margin-left: 0px; margin-top: 0px; " xmlns="http://www.w3.org/2000/svg" xmlns:xlink="http://www.w3.org/1999/xlink"><metadata><license name="CC BY-SA 3.0" href="http://creativecommons.org/licenses/by-sa/3.0/"></license><author name="Keyamoon" href="http://keyamoon.com/"></author></metadata><path d="M 320.00,160.00l 96.00-64.00L 320.00,0.00l-60.00,140.00L 224.00,32.00l-96.00,64.00l 80.00,64.00L 32.00,160.00 l0.00,128.00 l 32.00,0.00 l0.00,224.00 l 384.00,0.00 L 448.00,288.00 l 32.00,0.00 L 480.00,160.00 L 320.00,160.00 z M 328.096,42.037l 50.233,50.233
	l-100.467,66.978L 328.096,42.037z M 211.168,69.399l 28.364,85.092l-70.91-56.728L 211.168,69.399z M 224.00,480.00L 96.00,480.00 L 96.00,272.00 l 128.00,0.00 L 224.00,480.00 z M 224.00,256.00
	L 64.00,256.00 l0.00-64.00 l 160.00,0.00 L 224.00,256.00 z M 416.00,480.00L 288.00,480.00 L 288.00,272.00 l 128.00,0.00 L 416.00,480.00 z M 448.00,256.00L 288.00,256.00 l0.00-64.00 l 160.00,0.00 L 448.00,256.00 z"></path></svg>