<?xml version="1.0" encoding="utf-8"?>
<!-- Generator: IcoMoon  -->
<!DOCTYPE svg PUBLIC "-//W3C//DTD SVG 1.1//EN" "http://www.w3.org/Graphics/SVG/1.1/DTD/svg11.dtd">
<svg width="500" height="500" viewBox="0 0 500 500" data-tags="globe" style="margin-left: 0px; margin-top: 0px; " xmlns="http://www.w3.org/2000/svg" xmlns:xlink="http://www.w3.org/1999/xlink"><metadata><license name="CC BY-SA 3.0" href="http://creativecommons.org/licenses/by-sa/3.0/"></license><author name="Daniel Bruce" href="mailto:daniel@precinct.net"></author></metadata><path d="M 249.234,10.027c-132.344,0.00-240.00,107.688-240.00,240.004c0.00,132.344, 107.656,240.00, 240.00,240.00s 240.00-107.656, 240.00-240.00
	C 489.235,117.715, 381.578,10.027, 249.234,10.027z M 453.922,250.031c0.00,46.821-15.883,90.00-42.398,124.531
	c-7.50-5.886-15.469-21.695-7.969-38.102c 7.554-16.508, 9.531-54.688, 7.813-69.555c-1.664-14.844-9.375-50.653-30.36-50.992
	c-20.938-0.313-35.313-7.239-47.766-32.082c-25.828-51.696, 48.492-61.617, 22.656-90.258
	c-7.234-8.027-44.578,33.094-50.047-21.719c-0.367-3.886, 3.383-9.746, 8.383-15.84
	C 395.328,83.261, 453.922,159.903, 453.922,250.031z M 221.109,47.371c-4.899,9.531-17.813,13.41-25.68,20.578
	c-17.078,15.469-24.422,13.328-33.641,28.172c-9.274,14.844-39.172,36.25-39.172,46.984c0.00,10.723, 15.11,23.406, 22.656,20.938
	c 7.554-2.481, 27.453-2.344, 39.172,1.766c 11.719,4.141, 97.859,8.281, 70.414,81.097
	c-8.695,23.148-46.821,19.242-56.977,57.602c-1.516,5.601-6.774,29.637-7.141,37.50c-0.625,12.136, 8.594,57.946-3.125,57.946
	c-11.765,0.00-43.438-40.965-43.438-48.386s-8.226-33.465-8.226-55.754c0.00-22.293-37.914-21.93-37.914-51.563
	c0.00-26.746, 20.57-40.028, 15.938-52.84c-4.531-12.739-40.679-13.207-55.734-14.742C 84.547,108.386, 146.476,57.684, 221.109,47.371
	z M 184.859,444.274c 12.289-6.484, 13.539-14.867, 24.688-15.336c 12.758-0.574, 23.125-4.976, 37.50-8.125
	c 12.758-2.789, 35.571-15.73, 55.679-17.398c 16.922-1.379, 50.359,0.886, 59.375,17.242
	c-32.398,21.508-71.203,34.063-112.867,34.063C 226.734,454.719, 205.117,451.019, 184.859,444.274z"></path></svg>