<?xml version="1.0" encoding="utf-8"?>
<!-- Generator: IcoMoon  -->
<!DOCTYPE svg PUBLIC "-//W3C//DTD SVG 1.1//EN" "http://www.w3.org/Graphics/SVG/1.1/DTD/svg11.dtd">
<svg width="512" height="512" viewBox="0 0 512 512" data-tags="google plus, social" style="margin-left: 0px; margin-top: 0px; " xmlns="http://www.w3.org/2000/svg" xmlns:xlink="http://www.w3.org/1999/xlink"><metadata><license name="CC BY-SA 3.0" href="http://creativecommons.org/licenses/by-sa/3.0/"></license><author name="Keyamoon" href="http://keyamoon.com/"></author></metadata><path d="M 156.281,406.639c-13.536-4.367-28.447-6.937-44.447-7.104c-45.917-0.494-88.626,18.364-111.831,46.178L 0.003,480.00 
		c0.00,17.60, 14.398,32.00, 32.00,32.00l 196.562,0.00 c 0.908-5.564, 1.348-11.316, 1.348-17.216c0.00-6.267-0.767-12.396-2.188-18.361
		C 220.196,447.02, 193.498,432.44, 156.281,406.639zM 186.885,175.975c-7.947-60.24-51.698-108.584-97.704-109.961c-46.013-1.365-76.87,44.741-68.926,105.00
		c 7.941,60.234, 51.676,110.187, 97.699,111.56C 163.959,283.943, 194.821,236.225, 186.885,175.975zM 0.003,403.279c 26.72-12.687, 58.444-20.311, 92.94-20.311c 10.807,0.00, 20.711-0.295, 30.968-0.295
		c-13.573-13.167-24.313-29.30-24.313-49.191c0.00-11.803, 3.782-23.168, 9.067-33.26c-5.391,0.385-10.895,0.498-16.563,0.498
		c-37.178,0.00-68.754-12.039-92.103-31.928L 0.003,403.279L 0.003,403.279zM 512.00,128.00L 512.00,32.00 c0.00-17.60-14.40-32.00-32.00-32.00L 32.002,0.00 c-17.602,0.00-32.00,14.40-32.00,32.00l0.00,51.014 c 29.184-25.722, 69.693-42.209, 111.495-42.209
		c 44.652,0.00, 178.622,0.00, 178.622,0.00l-39.974,28.809l-56.634,0.00 c 37.565,14.402, 57.578,58.062, 57.578,102.861
		c0.00,37.624-20.905,69.977-50.444,92.984c-28.822,22.451-34.286,31.854-34.286,50.939c0.00,16.289, 30.873,44.00, 47.016,55.394
		c 47.192,33.269, 62.458,64.156, 62.458,115.728c0.00,8.213-1.021,16.415-3.033,24.48L 480.00,512.00 c 17.60,0.00, 32.00-14.399, 32.00-31.999l0.00-320.00 l-96.00,0.00 L 416.00,256.00 l-32.00,0.00 
		l0.00-96.00 l-95.999,0.00 l0.00-32.00 L 384.00,128.00 L 384.00,32.00 l 32.00,0.00 l0.00,96.00 L 512.00,128.00 z"></path></svg>