<?xml version="1.0" encoding="utf-8"?>
<!-- Generator: IcoMoon  -->
<!DOCTYPE svg PUBLIC "-//W3C//DTD SVG 1.1//EN" "http://www.w3.org/Graphics/SVG/1.1/DTD/svg11.dtd">
<svg width="512" height="512" viewBox="0 0 512 512" data-tags="info, information, notification, about" style="margin-left: 0px; margin-top: 0px; " xmlns="http://www.w3.org/2000/svg" xmlns:xlink="http://www.w3.org/1999/xlink"><metadata><license name="CC BY-SA 3.0" href="http://creativecommons.org/licenses/by-sa/3.0/"></license><author name="Keyamoon" href="http://keyamoon.com/"></author></metadata><path d="M 256.00,0.00C 114.615,0.00,0.00,114.615,0.00,256.00s 114.614,256.00, 256.00,256.00c 141.385,0.00, 256.00-114.615, 256.00-256.00S 397.385,0.00, 256.00,0.00z M 256.00,64.00
		c 35.347,0.00, 64.00,28.654, 64.00,64.00s-28.653,64.00-64.00,64.00s-64.00-28.654-64.00-64.00S 220.654,64.00, 256.00,64.00z M 352.00,448.00L 160.00,448.00 l0.00-32.00 l 32.00,0.00 L 192.00,256.00 l-32.00,0.00 l0.00-32.00 l 160.00,0.00 l0.00,192.00 l 32.00,0.00 L 352.00,448.00 z
		"></path></svg>