<?xml version="1.0" encoding="utf-8"?>
<!-- Generator: IcoMoon  -->
<!DOCTYPE svg PUBLIC "-//W3C//DTD SVG 1.1//EN" "http://www.w3.org/Graphics/SVG/1.1/DTD/svg11.dtd">
<svg width="384" height="512" viewBox="0 0 384 512" data-tags="iphone, touch, phone, mobile" style="margin-left: 4px; margin-top: 0px; " xmlns="http://www.w3.org/2000/svg" xmlns:xlink="http://www.w3.org/1999/xlink"><metadata><license name="CC BY-SA 3.0" href="http://creativecommons.org/licenses/by-sa/3.0/us/"></license><author name="P.J. Onori" href="http://somerandomdude.com"></author></metadata><path d="M 256.00,0.00L 128.00,0.00 C 57.312,0.00,0.00,57.312,0.00,128.00l0.00,256.00 c0.00,70.688, 57.312,128.00, 128.00,128.00l 128.00,0.00 c 70.688,0.00, 128.00-57.312, 128.00-128.00L 384.00,128.00 
		C 384.00,57.312, 326.688,0.00, 256.00,0.00z M 192.00,480.992c-18.224,0.00-32.992-14.752-32.992-32.992s 14.784-32.992, 32.992-32.992s 32.992,14.752, 32.992,32.992
		S 210.224,480.992, 192.00,480.992z M 320.00,384.00L 64.00,384.00 L 64.00,128.00 c0.00-35.248, 28.72-64.00, 64.00-64.00l 128.00,0.00 c 35.248,0.00, 64.00,28.752, 64.00,64.00L 320.00,384.00 z"></path></svg>