<?xml version="1.0" encoding="utf-8"?>
<!-- Generator: IcoMoon  -->
<!DOCTYPE svg PUBLIC "-//W3C//DTD SVG 1.1//EN" "http://www.w3.org/Graphics/SVG/1.1/DTD/svg11.dtd">
<svg width="500" height="500" viewBox="0 0 500 500" data-tags="keyboard" style="margin-left: 0px; margin-top: 0px; " xmlns="http://www.w3.org/2000/svg" xmlns:xlink="http://www.w3.org/1999/xlink"><metadata><license name="CC BY-SA 3.0" href="http://creativecommons.org/licenses/by-sa/3.0/"></license><author name="Daniel Bruce" href="mailto:daniel@precinct.net"></author></metadata><path d="M 464.235,100.028l-430.00,0.00 c-19.25,0.00-35.00,15.754-35.00,35.00l0.00,230.004 c0.00,19.25, 15.75,35.00, 35.00,35.00l 430.00,0.00 c 19.246,0.00, 35.00-15.75, 35.00-35.00L 499.235,135.028 
	C 499.235,115.781, 483.481,100.028, 464.235,100.028z M 274.235,150.028l 50.00,0.00 l0.00,50.004 l-50.00,0.00 L 274.235,150.028 z M 349.235,225.031l0.00,50.00 l-50.00,0.00 l0.00-50.00 
	L 349.235,225.031 z M 199.234,150.028l 50.00,0.00 l0.00,50.004 l-50.00,0.00 L 199.234,150.028 z M 274.235,225.031l0.00,50.00 l-50.00,0.00 l0.00-50.00 L 274.235,225.031 z M 124.234,150.028l 50.00,0.00 l0.00,50.004 l-50.00,0.00 
	L 124.234,150.028 z M 199.234,225.031l0.00,50.00 l-50.00,0.00 l0.00-50.00 L 199.234,225.031 z M 49.234,150.028l 50.00,0.00 l0.00,50.004 l-50.00,0.00 L 49.234,150.028 z M 124.234,225.031l0.00,50.00 l-50.00,0.00 l0.00-50.00 
	L 124.234,225.031 z M 99.234,350.031l-50.00,0.00 l0.00-50.00 l 50.00,0.00 L 99.234,350.031 z M 374.235,350.031l-250.00,0.00 l0.00-50.00 l 250.00,0.00 L 374.235,350.031 z M 449.235,350.031l-50.00,0.00 l0.00-50.00 l 50.00,0.00 
	L 449.235,350.031 z M 374.235,275.031l0.00-50.00 l 50.00,0.00 l0.00,50.00 L 374.235,275.031 z M 449.235,200.031l-100.00,0.00 L 349.235,150.028 l 100.00,0.00 L 449.235,200.031 z"></path></svg>