<?xml version="1.0" encoding="utf-8"?>
<!-- Generator: IcoMoon  -->
<!DOCTYPE svg PUBLIC "-//W3C//DTD SVG 1.1//EN" "http://www.w3.org/Graphics/SVG/1.1/DTD/svg11.dtd">
<svg width="384" height="512" viewBox="0 0 384 512" data-tags="lock_fill" style="margin-left: 4px; margin-top: 0px; " xmlns="http://www.w3.org/2000/svg" xmlns:xlink="http://www.w3.org/1999/xlink"><metadata><license name="CC BY-SA 3.0" href="http://creativecommons.org/licenses/by-sa/3.0/us/"></license><author name="P.J. Onori" href="http://somerandomdude.com"></author></metadata><path d="M 224.00,0.00C 135.872,0.00, 64.064,71.744, 64.064,160.00l0.00,32.00 L0.00,192.00 l0.00,224.00 c0.00,52.944, 43.056,96.00, 96.00,96.00l 192.00,0.00 c 52.944,0.00, 96.00-43.056, 96.00-96.00L 384.00,160.00 
		C 384.00,71.744, 312.192,0.00, 224.00,0.00z M 191.936,384.00C 174.32,384.00, 160.00,369.68, 160.00,352.00s 14.32-32.00, 31.936-32.00c 17.68,0.00, 32.00,14.32, 32.00,32.00S 209.632,384.00, 191.936,384.00z M 320.00,192.00
		L 128.064,192.00 l0.00-32.00 c0.00-52.944, 43.056-96.00, 95.936-96.00c 52.944,0.00, 96.00,43.056, 96.00,96.00L 320.00,192.00 z"></path></svg>