<?xml version="1.0" encoding="utf-8"?>
<!-- Generator: IcoMoon  -->
<!DOCTYPE svg PUBLIC "-//W3C//DTD SVG 1.1//EN" "http://www.w3.org/Graphics/SVG/1.1/DTD/svg11.dtd">
<svg width="500" height="500" viewBox="0 0 500 500" data-tags="map, location" style="margin-left: 0px; margin-top: 0px; " xmlns="http://www.w3.org/2000/svg" xmlns:xlink="http://www.w3.org/1999/xlink"><metadata><license name="CC BY-SA 3.0" href="http://creativecommons.org/licenses/by-sa/3.0/"></license><author name="Daniel Bruce" href="mailto:daniel@precinct.net"></author></metadata><path d="M 492.293,125.629L 375.473,52.461c-5.179-3.239-11.652-3.239-16.832,0.00L 250.234,120.359l-108.41-67.898
		c-5.176-3.239-11.649-3.239-16.824,0.00L 8.172,125.629c-4.922,3.09-7.938,8.645-7.938,14.645l0.00,292.68 
		c0.00,6.152, 3.172,11.828, 8.301,14.864c 5.125,3.023, 11.414,2.946, 16.473-0.219l 108.41-67.894l 108.403,67.894
		c 5.179,3.239, 11.649,3.239, 16.832,0.00l 108.406-67.894l 108.41,67.894c 2.586,1.621, 5.496,2.433, 8.414,2.433
		c 2.777,0.00, 5.554-0.742, 8.059-2.215c 5.129-3.035, 8.293-8.711, 8.293-14.864L 500.234,140.274 
		C 500.235,134.274, 497.219,128.719, 492.293,125.629z M 117.058,350.117L 32.949,402.801L 32.949,149.938 l 84.109-52.684L 117.058,350.117 z
		 M 233.883,402.801L 149.769,350.117L 149.769,97.254 l 84.114,52.688L 233.883,402.801 z M 350.703,350.117L 266.59,402.801L 266.59,149.941 l 84.114-52.688
		L 350.703,350.117 z M 467.527,402.801L 383.418,350.117L 383.418,97.254 l 84.109,52.684L 467.528,402.801 z"></path></svg>