<?xml version="1.0" encoding="utf-8"?>
<!-- Generator: IcoMoon  -->
<!DOCTYPE svg PUBLIC "-//W3C//DTD SVG 1.1//EN" "http://www.w3.org/Graphics/SVG/1.1/DTD/svg11.dtd">
<svg width="320" height="512" viewBox="0 0 320 512" data-tags="map_pin_stroke, pin, location" style="margin-left: 6px; margin-top: 0px; " xmlns="http://www.w3.org/2000/svg" xmlns:xlink="http://www.w3.org/1999/xlink"><metadata><license name="CC BY-SA 3.0" href="http://creativecommons.org/licenses/by-sa/3.0/us/"></license><author name="P.J. Onori" href="http://somerandomdude.com"></author></metadata><path d="M 160.00,64.00c 25.632,0.00, 49.744,10.00, 67.872,28.16C 246.00,110.256, 256.00,134.368, 256.00,160.00s-10.00,49.744-27.68,67.408
			c-2.688,2.656-35.808,35.60-68.32,87.056c-32.368-51.376-65.376-84.192-67.872-86.624C 74.00,209.744, 64.00,185.632, 64.00,160.00s 10.00-49.744, 28.128-67.872
			S 134.368,64.00, 160.00,64.00 M 160.00,0.00C 119.056,0.00, 78.128,15.632, 46.88,46.88c-62.496,62.464-62.496,163.776,0.00,226.256C 46.88,273.12, 160.00,384.00, 160.00,512.00
			c0.00-128.00, 113.12-238.88, 113.12-238.88c 62.496-62.464, 62.496-163.776,0.00-226.256C 241.872,15.632, 200.944,0.00, 160.00,0.00L 160.00,0.00zM 128.00,160.00A32.00,32.00 1080.00 1,0 192.00,160A32.00,32.00 1080.00 1,0 128.00,160z"></path></svg>