<?xml version="1.0" encoding="utf-8"?>
<!-- Generator: IcoMoon  -->
<!DOCTYPE svg PUBLIC "-//W3C//DTD SVG 1.1//EN" "http://www.w3.org/Graphics/SVG/1.1/DTD/svg11.dtd">
<svg width="512" height="512" viewBox="0 0 512 512" data-tags="moon_stroke, night" style="margin-left: 0px; margin-top: 0px; " xmlns="http://www.w3.org/2000/svg" xmlns:xlink="http://www.w3.org/1999/xlink"><metadata><license name="CC BY-SA 3.0" href="http://creativecommons.org/licenses/by-sa/3.0/us/"></license><author name="P.J. Onori" href="http://somerandomdude.com"></author></metadata><path d="M 94.32,146.368c 13.568,143.344, 128.00,257.744, 271.312,271.248c-30.56,19.376-66.432,30.368-104.00,30.368
		C 152.624,448.00, 64.00,359.376, 64.00,250.336C 64.00,212.784, 75.008,176.944, 94.32,146.368 M 189.504,0.00C 80.32,31.504,0.00,131.024,0.00,250.336C0.00,394.88, 117.12,512.00, 261.632,512.00
		c 119.312,0.00, 218.88-80.368, 250.368-189.504c-34.88,20.128-74.752,32.496-117.872,32.496c-131.008,0.00-237.12-106.224-237.12-237.152
		C 156.992,74.72, 169.376,34.848, 189.504,0.00L 189.504,0.00z"></path></svg>