<?xml version="1.0" encoding="utf-8"?>
<!-- Generator: IcoMoon  -->
<!DOCTYPE svg PUBLIC "-//W3C//DTD SVG 1.1//EN" "http://www.w3.org/Graphics/SVG/1.1/DTD/svg11.dtd">
<svg width="512" height="512" viewBox="0 0 512 512" data-tags="music, song, audio" style="margin-left: 0px; margin-top: 0px; " xmlns="http://www.w3.org/2000/svg" xmlns:xlink="http://www.w3.org/1999/xlink"><metadata><license name="CC BY-SA 3.0" href="http://creativecommons.org/licenses/by-sa/3.0/"></license><author name="Keyamoon" href="http://keyamoon.com/"></author></metadata><path d="M 155.755,31.549l-13.09,340.294c-17.465-8.962-39.377-12.84-62.368-9.578c-49.574,7.021-85.271,44.418-79.729,83.517
	c 5.543,39.102, 50.223,65.101, 99.795,58.078c 43.996-6.235, 77.021-36.395, 80.022-70.43l 0.01,0.019c 0.006-0.077, 0.011-0.193, 0.018-0.28
	c 0.073-0.865, 0.115-1.741, 0.147-2.611c 1.846-35.143, 13.148-302.082, 13.148-302.082l 278.355-28.679l-12.572,240.41
	c-17.863-9.942-40.822-14.371-64.964-10.95c-49.574,7.028-85.268,44.417-79.726,83.521c 5.541,39.098, 50.221,65.102, 99.795,58.071
	c 44.933-6.36, 78.41-37.682, 80.166-72.604l 0.021-0.021C 495.742,382.248, 512.00,6.995, 512.00,6.995L 155.755,31.549z"></path></svg>