<?xml version="1.0" encoding="utf-8"?>
<!-- Generator: IcoMoon  -->
<!DOCTYPE svg PUBLIC "-//W3C//DTD SVG 1.1//EN" "http://www.w3.org/Graphics/SVG/1.1/DTD/svg11.dtd">
<svg width="500" height="500" viewBox="0 0 500 500" data-tags="network" style="margin-left: 0px; margin-top: 0px; " xmlns="http://www.w3.org/2000/svg" xmlns:xlink="http://www.w3.org/1999/xlink"><metadata><license name="CC BY-SA 3.0" href="http://creativecommons.org/licenses/by-sa/3.0/"></license><author name="Daniel Bruce" href="mailto:daniel@precinct.net"></author></metadata><path d="M 131.063,172.871c 5.027,0.00, 9.871,0.761, 14.438,2.168c 17.238-19.317, 36.352-36.895, 57.059-52.50
	c-0.871-3.652-1.383-7.441-1.383-11.367c0.00-5.426, 0.918-10.625, 2.551-15.50c-23.183-16.64-48.406-30.602-75.234-41.395
	c-25.156,15.547-47.086,35.809-64.57,59.554c 12.976,22.985, 28.414,44.414, 45.946,63.922
	C 116.289,174.656, 123.461,172.871, 131.063,172.871z M 82.129,221.804c0.00-6.867, 1.429-13.406, 3.989-19.34
	c-15.707-17.242-29.93-35.847-42.398-55.679C 28.09,177.84, 19.235,212.891, 19.235,250.024c0.00,43.008, 11.828,83.239, 32.375,117.664
	c 7.34-41.379, 21.273-80.481, 40.516-116.336C 85.875,243.141, 82.129,232.922, 82.129,221.804z M 250.113,62.234
	c 12.926,0.00, 24.645,5.047, 33.386,13.235c 25.531-10.989, 52.422-19.41, 80.391-24.789C 330.125,31.219, 290.996,20.027, 249.226,20.027
	c-28.469,0.00-55.719,5.215-80.891,14.68c 19.985,9.864, 39.011,21.387, 56.922,34.364
	C 232.547,64.754, 241.031,62.234, 250.113,62.234z M 323.289,292.719c 3.047-6.336, 7.375-11.945, 12.719-16.406
	c-14.445-44.453-37.328-85.109-66.793-120.078c-5.871,2.492-12.324,3.871-19.102,3.871c-10.617,0.00-20.41-3.418-28.43-9.16
	c-17.735,13.489-34.145,28.602-49.074,45.09C 177.266,203.519, 180.00,212.336, 180.00,221.804c0.00,5.114-0.785,10.035-2.242,14.664
	C 220.684,265.149, 270.078,284.808, 323.289,292.719z M 386.762,358.774c 0.676,9.261, 1.031,18.613, 1.031,28.047
	c0.00,16.602-1.054,32.961-3.063,49.023c 39.00-28.492, 68.699-68.938, 83.672-115.969c-17.735,4.289-35.938,7.356-54.511,9.14
	C 409.527,342.406, 399.57,353.242, 386.762,358.774z M 311.82,325.61C 255.054,316.203, 202.406,294.547, 156.594,263.50
	c-7.438,4.563-16.164,7.246-25.531,7.246c-3.442,0.00-6.797-0.367-10.031-1.039c-21.933,41.586-35.953,87.965-39.977,137.144
	c 21.895,23.477, 48.614,42.391, 78.625,55.09C 196.949,404.637, 249.047,357.231, 311.82,325.61z M 403.629,79.558
	c-36.864,3.554-72.063,12.805-104.832,26.711c 0.168,1.609, 0.25,3.246, 0.25,4.902c0.00,7.723-1.84,15.004-5.024,21.504
	c 32.739,38.441, 58.172,83.239, 74.227,132.274c 19.898,0.355, 36.91,12.543, 44.227,29.86c 22.14-2.246, 43.699-6.484, 64.469-12.59
	c 1.472-10.52, 2.289-21.258, 2.289-32.196C 479.235,182.426, 450.063,121.641, 403.629,79.558z M 336.445,351.75
	c-58.597,27.453-107.597,69.727-143.082,121.414c 17.887,4.461, 36.594,6.867, 55.864,6.867
	c 34.699,0.00, 67.57-7.726, 97.07-21.485c 4.734-23.18, 7.242-47.16, 7.242-71.727c0.00-8.875-0.399-17.66-1.063-26.367
	C 346.567,358.558, 341.14,355.59, 336.445,351.75z"></path></svg>