<?xml version="1.0" encoding="utf-8"?>
<!-- Generator: IcoMoon  -->
<!DOCTYPE svg PUBLIC "-//W3C//DTD SVG 1.1//EN" "http://www.w3.org/Graphics/SVG/1.1/DTD/svg11.dtd">
<svg width="512" height="512" viewBox="0 0 512 512" data-tags="paperclip, attachment" style="margin-left: 0px; margin-top: 0px; " xmlns="http://www.w3.org/2000/svg" xmlns:xlink="http://www.w3.org/1999/xlink"><metadata><license name="CC BY-SA 3.0" href="http://creativecommons.org/licenses/by-sa/3.0/us/"></license><author name="P.J. Onori" href="http://somerandomdude.com"></author></metadata><path d="M 276.688,244.672l-45.264-45.264l-64.00,64.00c-31.248,31.248-31.248,81.904,0.00,113.136c 31.248,31.248, 81.888,31.248, 113.136,0.00l 161.952-158.064
	c 49.968-49.984, 49.968-131.008,0.00-181.008c-50.00-49.984-131.04-49.984-181.008,0.00L 83.568,211.552c-68.736,68.72-68.736,180.16,0.00,248.912
	c 68.736,68.736, 180.176,68.736, 248.896,0.00l 96.00-96.00L 383.20,319.20l-0.16,0.16l-95.824,95.84c-43.728,43.712-114.656,43.712-158.40,0.00
	c-43.728-43.712-43.728-114.656,0.00-158.384L 306.752,82.72c 24.992-24.992, 65.52-24.992, 90.496,0.00c 25.008,25.008, 25.008,65.552,0.00,90.512l-161.936,158.064
	c-6.256,6.256-16.368,6.256-22.624,0.00s-6.256-16.368,0.00-22.624L 276.688,244.672z"></path></svg>