<?xml version="1.0" encoding="utf-8"?>
<!-- Generator: IcoMoon  -->
<!DOCTYPE svg PUBLIC "-//W3C//DTD SVG 1.1//EN" "http://www.w3.org/Graphics/SVG/1.1/DTD/svg11.dtd">
<svg width="500" height="500" viewBox="0 0 500 500" data-tags="printer" style="margin-left: 0px; margin-top: 0px; " xmlns="http://www.w3.org/2000/svg" xmlns:xlink="http://www.w3.org/1999/xlink"><metadata><license name="CC BY-SA 3.0" href="http://creativecommons.org/licenses/by-sa/3.0/"></license><author name="Daniel Bruce" href="mailto:daniel@precinct.net"></author></metadata><path d="M 37.734,162.531l 425.00,0.00 c 14.265,0.00, 11.922-15.199, 4.824-17.676c-7.101-2.481-86.074-32.324-99.824-32.324l-22.50,0.00 l0.00-75.00 l-190.00,0.00 l0.00,75.00 
		l-22.50,0.00 c-13.75,0.00-92.727,29.844-99.824,32.324C 25.808,147.332, 23.465,162.531, 37.734,162.531z M 467.735,190.031l-435.00,0.00 
		c-13.75,0.00-27.50,16.25-27.50,30.00l0.00,87.50 c0.00,13.75, 13.75,30.00, 27.50,30.00l 49.559,0.00 l-22.058,125.00l 380.00,0.00 l-22.063-125.00l 49.563,0.00 c 13.75,0.00, 27.50-16.25, 27.50-30.00l0.00-87.50 
		C 495.235,206.281, 481.485,190.031, 467.735,190.031z M 110.234,412.531l 35.00-162.50l 210.00,0.00 l 35.00,162.50L 110.234,412.531 z"></path></svg>