<?xml version="1.0" encoding="utf-8"?>
<!-- Generator: IcoMoon  -->
<!DOCTYPE svg PUBLIC "-//W3C//DTD SVG 1.1//EN" "http://www.w3.org/Graphics/SVG/1.1/DTD/svg11.dtd">
<svg width="500" height="500" viewBox="0 0 500 500" data-tags="publish" style="margin-left: 0px; margin-top: 0px; " xmlns="http://www.w3.org/2000/svg" xmlns:xlink="http://www.w3.org/1999/xlink"><metadata><license name="CC BY-SA 3.0" href="http://creativecommons.org/licenses/by-sa/3.0/"></license><author name="Daniel Bruce" href="mailto:daniel@precinct.net"></author></metadata><path d="M 449.235,25.031l-400.00,0.00 c-27.50,0.00-50.00,22.50-50.00,50.00l0.00,300.00 c0.00,27.50, 22.50,49.504, 50.00,49.504l 99.50,0.00 l0.00-49.004 l-100.00,0.00 l0.00-230.50 l 400.996,0.00 l0.00,230.50 l-100.00,0.00 l0.00,49.004 
	l 99.504,0.00 c 27.50,0.00, 50.00-22.004, 50.00-49.504l0.00-300.00 C 499.235,47.531, 476.735,25.031, 449.235,25.031z M 64.234,108.278
	c-10.364,0.00-18.75-8.164-18.75-18.246s 8.386-18.246, 18.75-18.246c 10.36,0.00, 18.75,8.164, 18.75,18.246S 74.594,108.278, 64.234,108.278z
	 M 114.234,108.278c-10.364,0.00-18.75-8.164-18.75-18.246s 8.386-18.246, 18.75-18.246c 10.36,0.00, 18.75,8.164, 18.75,18.246
	S 124.594,108.278, 114.234,108.278z M 449.731,105.535L 148.734,105.535 l0.00-31.00 l 300.996,0.00 L 449.731,105.535 z M 247.934,204.379L 126.636,324.926l 75.00,0.00 l0.00,150.106 
	l 92.597,0.00 L 294.234,324.926 l 75.00,0.00 L 247.934,204.379z"></path></svg>