<?xml version="1.0" encoding="utf-8"?>
<!-- Generator: IcoMoon  -->
<!DOCTYPE svg PUBLIC "-//W3C//DTD SVG 1.1//EN" "http://www.w3.org/Graphics/SVG/1.1/DTD/svg11.dtd">
<svg width="511.9679870605469" height="512" viewBox="0 0 511.9679870605469 512" data-tags="rain, weather, cloud" style="margin-left: 0.0010004043579101563px; margin-top: 0px; " xmlns="http://www.w3.org/2000/svg" xmlns:xlink="http://www.w3.org/1999/xlink"><metadata><license name="CC BY-SA 3.0" href="http://creativecommons.org/licenses/by-sa/3.0/us/"></license><author name="P.J. Onori" href="http://somerandomdude.com"></author></metadata><path d="M 383.968,96.00c-6.00,0.00-11.728,0.976-17.648,1.776C 344.096,58.336, 302.816,32.00, 256.00,32.00c-47.792,0.00-89.04,26.656-111.04,65.60
			C 139.312,96.848, 133.68,96.00, 128.00,96.00c-70.56,0.00-128.00,57.408-128.00,128.00s 57.44,128.00, 128.00,128.00l 255.968,0.00 c 70.624,0.00, 128.00-57.408, 128.00-128.00S 454.592,96.00, 383.968,96.00z M 383.968,288.00L 128.00,288.00 
			c-35.312,0.00-64.00-28.72-64.00-64.00c0.00-35.088, 31.056-62.16, 64.064-63.12c 0.144,15.088, 2.752,29.904, 8.00,43.904l 59.936-22.432
			C 193.312,175.248, 192.00,167.712, 192.00,160.00c0.00-35.28, 28.688-64.00, 64.00-64.00c 20.688,0.00, 39.44,10.256, 51.184,26.224C 276.336,145.60, 256.00,182.32, 256.00,224.00l 64.00,0.00 
			c0.00-35.28, 28.72-64.00, 63.968-64.00c 35.376,0.00, 64.00,28.72, 64.00,64.00S 419.344,288.00, 383.968,288.00zM 52.496,471.008c-12.00,12.00-31.504,12.00-43.504,0.00s-12.00-31.504,0.00-43.504S 96.00,384.00, 96.00,384.00S 64.496,459.008, 52.496,471.008zM 180.56,471.008c-12.00,12.00-31.44,12.00-43.504,0.00c-12.00-12.00-12.00-31.504,0.00-43.504
			C 149.12,415.504, 224.064,384.00, 224.064,384.00S 192.624,459.008, 180.56,471.008zM 308.48,471.008c-12.00,12.00-31.504,12.00-43.504,0.00s-12.00-31.504,0.00-43.504S 351.968,384.00, 351.968,384.00
			S 320.48,459.008, 308.48,471.008z"></path></svg>