<?xml version="1.0" encoding="utf-8"?>
<!-- Generator: IcoMoon  -->
<!DOCTYPE svg PUBLIC "-//W3C//DTD SVG 1.1//EN" "http://www.w3.org/Graphics/SVG/1.1/DTD/svg11.dtd">
<svg width="512" height="512" viewBox="0 0 512 512" data-tags="remove, delete, trashcan, recycle bin" style="margin-left: 0px; margin-top: 0px; " xmlns="http://www.w3.org/2000/svg" xmlns:xlink="http://www.w3.org/1999/xlink"><metadata><license name="CC BY-SA 3.0" href="http://creativecommons.org/licenses/by-sa/3.0/"></license><author name="Keyamoon" href="http://keyamoon.com/"></author></metadata><path d="M 480.00,64.00L 320.00,64.00 L 320.00,16.00 c0.00-8.836-7.163-16.00-16.00-16.00l-96.00,0.00 c-8.836,0.00-16.00,7.164-16.00,16.00l0.00,48.00 L 32.00,64.00 L0.00,128.00l 64.00,0.00 l 32.00,384.00l 320.00,0.00 l 32.00-384.00l 64.00,0.00 L 480.00,64.00z M 224.00,448.00
	l-64.00,0.00 L 160.00,160.00 l 64.00,0.00 L 224.00,448.00 z M 224.00,32.00l 64.00,0.00 l0.00,32.00 l-64.00,0.00 L 224.00,32.00 z M 352.00,448.00l-64.00,0.00 L 288.00,160.00 l 64.00,0.00 L 352.00,448.00 z"></path></svg>