<?xml version="1.0" encoding="utf-8"?>
<!-- Generator: IcoMoon  -->
<!DOCTYPE svg PUBLIC "-//W3C//DTD SVG 1.1//EN" "http://www.w3.org/Graphics/SVG/1.1/DTD/svg11.dtd">
<svg width="500" height="500" viewBox="0 0 500 500" data-tags="screen, tv" style="margin-left: 0px; margin-top: 0px; " xmlns="http://www.w3.org/2000/svg" xmlns:xlink="http://www.w3.org/1999/xlink"><metadata><license name="CC BY-SA 3.0" href="http://creativecommons.org/licenses/by-sa/3.0/"></license><author name="Daniel Bruce" href="mailto:daniel@precinct.net"></author></metadata><path d="M 449.235,30.031l-400.00,0.00 c-27.50,0.00-50.00,22.50-50.00,50.00l0.00,275.00 c0.00,27.50, 22.058,54.414, 49.028,59.804l 109.301,21.863
	c0.00,0.00-94.078,33.332-33.328,33.332l 250.00,0.00 c 60.746,0.00-33.332-33.332-33.332-33.332l 109.301-21.863
	c 26.969-5.391, 49.031-32.304, 49.031-59.804l0.00-275.00 C 499.235,52.531, 476.735,30.031, 449.235,30.031z M 449.235,352.531l-400.00,0.00 l0.00-277.50 l 400.00,0.00 
	L 449.235,352.531 z"></path></svg>