<?xml version="1.0" encoding="utf-8"?>
<!-- Generator: IcoMoon  -->
<!DOCTYPE svg PUBLIC "-//W3C//DTD SVG 1.1//EN" "http://www.w3.org/Graphics/SVG/1.1/DTD/svg11.dtd">
<svg width="500" height="500" viewBox="0 0 500 500" data-tags="song, music, sound" style="margin-left: 0px; margin-top: 0px; " xmlns="http://www.w3.org/2000/svg" xmlns:xlink="http://www.w3.org/1999/xlink"><metadata><license name="CC BY-SA 3.0" href="http://creativecommons.org/licenses/by-sa/3.0/"></license><author name="Daniel Bruce" href="mailto:daniel@precinct.net"></author></metadata><path d="M 375.235,25.031l-250.00,0.00 c-27.50,0.00-50.00,22.50-50.00,50.00l0.00,350.00 c0.00,27.50, 22.50,50.00, 50.00,50.00l 250.00,0.00 c 27.50,0.00, 50.00-22.50, 50.00-50.00l0.00-350.00 
		C 425.235,47.531, 402.735,25.031, 375.235,25.031z M 320.137,263.047c-5.941,9.25-9.094,5.297-7.304,0.00
		c 4.715-13.945, 4.519-56.164-34.809-62.359l0.00,130.321 c0.00,24.293-13.985,39.551-43.734,49.094
		c-28.906,9.27-61.258-0.359-68.817-21.125c-7.559-20.762, 9.438-46.008, 37.965-56.398
		c 15.914-5.781, 32.054-5.711, 44.531-0.914L 247.969,117.844 l 30.055,0.00 C 278.024,149.406, 362.547,197.071, 320.137,263.047z"></path></svg>