<?xml version="1.0" encoding="utf-8"?>
<!-- Generator: IcoMoon  -->
<!DOCTYPE svg PUBLIC "-//W3C//DTD SVG 1.1//EN" "http://www.w3.org/Graphics/SVG/1.1/DTD/svg11.dtd">
<svg width="448" height="512" viewBox="0 0 448 512" data-tags="spin, refresh, reload, synchronize, loop" style="margin-left: 2px; margin-top: 0px; " xmlns="http://www.w3.org/2000/svg" xmlns:xlink="http://www.w3.org/1999/xlink"><metadata><license name="CC BY-SA 3.0" href="http://creativecommons.org/licenses/by-sa/3.0/us/"></license><author name="P.J. Onori" href="http://somerandomdude.com"></author></metadata><path d="M 382.128,97.376l-45.12,45.312C 367.248,172.944, 384.00,213.184, 384.00,256.00c0.00,88.256-71.744,160.00-160.00,160.00l0.00-32.00 l-64.00,64.00l 64.00,64.00l0.00-32.00 
			c 123.504,0.00, 224.00-100.496, 224.00-224.00C 448.00,196.064, 424.624,139.744, 382.128,97.376zM 288.00,64.00l-64.00-64.00l0.00,32.00 C 100.496,32.00,0.00,132.496,0.00,256.00c0.00,59.936, 23.376,116.256, 65.872,158.624l 45.12-45.312
			C 80.752,339.056, 64.00,298.816, 64.00,256.00C 64.00,167.744, 135.744,96.00, 224.00,96.00l0.00,32.00 L 288.00,64.00z"></path></svg>