<?xml version="1.0" encoding="utf-8"?>
<!-- Generator: IcoMoon  -->
<!DOCTYPE svg PUBLIC "-//W3C//DTD SVG 1.1//EN" "http://www.w3.org/Graphics/SVG/1.1/DTD/svg11.dtd">
<svg width="511.9679870605469" height="512" viewBox="0 0 511.9679870605469 512" data-tags="sun_fill, weather" style="margin-left: 0.0010004043579101563px; margin-top: 0px; " xmlns="http://www.w3.org/2000/svg" xmlns:xlink="http://www.w3.org/1999/xlink"><metadata><license name="CC BY-SA 3.0" href="http://creativecommons.org/licenses/by-sa/3.0/us/"></license><author name="P.J. Onori" href="http://somerandomdude.com"></author></metadata><path d="M 256.016,128.00c-70.688,0.00-128.00,57.312-128.00,128.00s 57.312,128.00, 128.00,128.00C 326.704,384.00, 384.00,326.688, 384.00,256.00S 326.704,128.00, 256.016,128.00L 256.016,128.00zM 224.00,32.00A32.00,32.00 1080.00 1,0 288.00,32A32.00,32.00 1080.00 1,0 224.00,32zM 64.00,96.00A32.00,32.00 1080.00 1,0 128.00,96A32.00,32.00 1080.00 1,0 64.00,96zM 32.00,224.00c 17.68,0.00, 32.00,14.32, 32.00,32.00c0.00,17.712-14.32,32.00-32.00,32.00s-32.00-14.288-32.00-32.00C0.00,238.32, 14.32,224.00, 32.00,224.00zM 64.00,416.00A32.00,32.00 1080.00 1,0 128.00,416A32.00,32.00 1080.00 1,0 64.00,416zM 224.00,480.00c0.00-17.744, 14.32-32.00, 32.00-32.00c 17.728,0.00, 32.00,14.256, 32.00,32.00c0.00,17.632-14.272,32.00-32.00,32.00C 238.32,512.00, 224.00,497.632, 224.00,480.00zM 384.00,416.00A32.00,32.00 1080.00 1,0 448.00,416A32.00,32.00 1080.00 1,0 384.00,416zM 480.00,288.00c-17.664,0.00-32.00-14.336-32.00-32.00c0.00-17.712, 14.336-32.00, 32.00-32.00s 32.00,14.288, 32.00,32.00C 512.00,273.664, 497.664,288.00, 480.00,288.00zM 384.00,96.00A32.00,32.00 1080.00 1,0 448.00,96A32.00,32.00 1080.00 1,0 384.00,96z"></path></svg>