<?xml version="1.0" encoding="utf-8"?>
<!-- Generator: IcoMoon  -->
<!DOCTYPE svg PUBLIC "-//W3C//DTD SVG 1.1//EN" "http://www.w3.org/Graphics/SVG/1.1/DTD/svg11.dtd">
<svg width="512" height="512" viewBox="0 0 512 512" data-tags="tablet, _new" style="margin-left: 0px; margin-top: 0px; " xmlns="http://www.w3.org/2000/svg" xmlns:xlink="http://www.w3.org/1999/xlink"><metadata><license name="CC BY-SA 3.0" href="http://creativecommons.org/licenses/by-sa/3.0/"></license><author name="Keyamoon" href="http://keyamoon.com/"></author></metadata><path d="M 416.00,0.00L 96.00,0.00 C 78.40,0.00, 64.00,14.40, 64.00,32.00l0.00,448.00 c0.00,17.60, 14.40,32.00, 32.00,32.00l 320.00,0.00 c 17.60,0.00, 32.00-14.40, 32.00-32.00L 448.00,32.00 C 448.00,14.40, 433.60,0.00, 416.00,0.00z M 256.00,496.00
	c-8.837,0.00-16.00-7.163-16.00-16.00s 7.163-16.00, 16.00-16.00s 16.00,7.163, 16.00,16.00S 264.837,496.00, 256.00,496.00z M 384.00,448.00L 128.00,448.00 L 128.00,64.00 l 256.00,0.00 L 384.00,448.00 z"></path></svg>