<?xml version="1.0" encoding="utf-8"?>
<!-- Generator: IcoMoon  -->
<!DOCTYPE svg PUBLIC "-//W3C//DTD SVG 1.1//EN" "http://www.w3.org/Graphics/SVG/1.1/DTD/svg11.dtd">
<svg width="512" height="512" viewBox="0 0 512 512" data-tags="twitter, tweet, social" style="margin-left: 0px; margin-top: 0px; " xmlns="http://www.w3.org/2000/svg" xmlns:xlink="http://www.w3.org/1999/xlink"><metadata><license name="CC BY-SA 3.0" href="http://creativecommons.org/licenses/by-sa/3.0/"></license><author name="Keyamoon" href="http://keyamoon.com/"></author></metadata><path d="M 426.671,0.00L 85.343,0.00 C 38.406,0.00,0.00,38.405,0.00,85.345l0.00,341.311 C0.00,473.625, 38.406,512.00, 85.343,512.00l 341.328,0.00 
	C 473.609,512.00, 512.00,473.625, 512.00,426.655L 512.00,85.345 C 512.00,38.405, 473.609,0.00, 426.671,0.00z M 257.00,336.00l 87.903,0.00 
	c 22.155,0.00, 39.094,17.124, 39.094,39.499c0.00,22.36-18.279,40.188-40.438,40.188l-87.89,0.00 c-70.577,0.00-127.67-61.47-127.67-137.403L 127.999,136.499 
	c0.00-22.359, 17.952-40.50, 40.094-40.50c 22.156,0.00, 38.907,18.141, 38.907,40.50L 207.00,176.00 L 343.89,176.00 c 22.156,0.00, 40.107,17.907, 40.107,39.999
	c0.00,22.079-17.951,39.985-40.107,39.985L 207.001,255.984 l0.00,22.297 C 207.001,309.018, 231.094,336.00, 257.00,336.00z"></path></svg>