<?xml version="1.0" encoding="utf-8"?>
<!-- Generator: IcoMoon  -->
<!DOCTYPE svg PUBLIC "-//W3C//DTD SVG 1.1//EN" "http://www.w3.org/Graphics/SVG/1.1/DTD/svg11.dtd">
<svg width="512" height="512" viewBox="0 0 512 512" data-tags="twitter, tweet, social" style="margin-left: 0px; margin-top: 0px; " xmlns="http://www.w3.org/2000/svg" xmlns:xlink="http://www.w3.org/1999/xlink"><metadata><license name="CC BY-SA 3.0" href="http://creativecommons.org/licenses/by-sa/3.0/"></license><author name="Keyamoon" href="http://keyamoon.com/"></author></metadata><path d="M 512.00,242.316c-18.021,3.075-44.153-0.124-58.001-5.884c 28.776-2.382, 48.259-15.461, 55.762-33.213
	c-10.366,6.385-42.581,13.336-60.343,6.712c-0.888-4.181-1.849-8.155-2.826-11.752c-13.529-49.793-59.93-89.916-108.513-85.066
	c 3.914-1.589, 7.892-3.065, 11.906-4.413c 5.319-1.917, 36.72-7.038, 31.784-18.108c-4.186-9.766-42.543,7.341-49.761,9.59
	c 9.534-3.573, 25.303-9.737, 26.982-20.714c-14.602,2.003-28.938,8.917-40.013,18.968c 4.005-4.304, 7.037-9.553, 7.678-15.209
	c-38.962,24.923-61.724,75.125-80.128,123.863c-14.457-14.041-27.306-25.088-38.789-31.243
	c-32.25-17.288-70.825-35.354-131.355-57.859c-1.86,20.048, 9.901,46.725, 43.77,64.437c-7.332-0.991-20.751,1.23-31.467,3.779
	c 4.363,22.99, 18.642,41.913, 57.325,51.052c-17.674,1.163-26.824,5.213-35.092,13.867c 8.048,15.981, 27.715,34.778, 63.026,30.913
	c-39.299,16.963-16.025,48.363, 15.959,43.675C 135.374,382.116, 49.38,377.936,0.00,330.794
	c 128.911,175.847, 409.165,103.979, 450.908-65.389C 482.226,265.659, 500.595,254.564, 512.00,242.316z"></path></svg>