<?xml version="1.0" encoding="utf-8"?>
<!-- Generator: IcoMoon  -->
<!DOCTYPE svg PUBLIC "-//W3C//DTD SVG 1.1//EN" "http://www.w3.org/Graphics/SVG/1.1/DTD/svg11.dtd">
<svg width="512" height="512" viewBox="0 0 512 512" data-tags="twitter, tweet, social" style="margin-left: 0px; margin-top: 0px; " xmlns="http://www.w3.org/2000/svg" xmlns:xlink="http://www.w3.org/1999/xlink"><metadata><license name="CC BY-SA 3.0" href="http://creativecommons.org/licenses/by-sa/3.0/"></license><author name="Keyamoon" href="http://keyamoon.com/"></author></metadata><path d="M 426.671,0.00L 85.343,0.00 C 38.406,0.00,0.00,38.405,0.00,85.345l0.00,341.311 C0.00,473.625, 38.406,512.00, 85.343,512.00l 341.328,0.00 
	C 473.609,512.00, 512.00,473.625, 512.00,426.655L 512.00,85.345 C 512.00,38.405, 473.609,0.00, 426.671,0.00z M 402.181,263.054
	C 370.874,390.08, 160.683,443.98, 64.00,312.096c 37.035,35.355, 101.53,38.491, 142.428-3.813c-23.988,3.517-41.443-20.033-11.97-32.756
	c-26.482,2.899-41.233-11.199-47.269-23.185c 6.201-6.491, 13.063-9.528, 26.319-10.40c-29.012-6.854-39.722-21.046-42.994-38.289
	c 8.036-1.911, 18.101-3.577, 23.60-2.834c-25.401-13.284-34.222-33.292-32.827-48.328c 45.398,16.879, 74.33,30.429, 98.517,43.395
	c 8.612,4.616, 18.249,12.901, 29.091,23.432c 13.805-36.553, 30.875-74.205, 60.097-92.897c-0.48,4.243-2.754,8.179-5.759,11.407
	c 8.308-7.538, 19.059-12.724, 30.01-14.226c-1.26,8.233-13.086,12.855-20.236,15.536c 5.413-1.687, 34.181-14.518, 37.32-7.193
	c 3.701,8.303-19.849,12.144-23.838,13.582c-3.011,1.011-5.994,2.118-8.931,3.31c 36.438-3.637, 71.238,26.455, 81.385,63.80
	c 0.734,2.697, 1.454,5.678, 2.12,8.814c 13.321,4.967, 37.482-0.246, 45.258-5.035c-5.628,13.314-20.24,23.124-41.822,24.91
	c 10.386,4.321, 29.985,6.719, 43.501,4.413C 439.447,254.923, 425.669,263.244, 402.181,263.054z"></path></svg>