<?xml version="1.0" encoding="utf-8"?>
<!-- Generator: IcoMoon  -->
<!DOCTYPE svg PUBLIC "-//W3C//DTD SVG 1.1//EN" "http://www.w3.org/Graphics/SVG/1.1/DTD/svg11.dtd">
<svg width="512" height="512" viewBox="0 0 512 512" data-tags="twitter, tweet, social" style="margin-left: 0px; margin-top: 0px; " xmlns="http://www.w3.org/2000/svg" xmlns:xlink="http://www.w3.org/1999/xlink"><metadata><license name="CC BY-SA 3.0" href="http://creativecommons.org/licenses/by-sa/3.0/"></license><author name="Keyamoon" href="http://keyamoon.com/"></author></metadata><path d="M 412.149,384.375L 271.362,384.375 c-41.494,0.00-80.083-43.219-80.083-92.439l0.00-35.713 l 219.24,0.00 c 35.479,0.00, 64.232-28.671, 64.232-64.038
	c0.00-35.382-28.756-64.061-64.232-64.061l-219.24,0.00 L 191.279,64.86 c0.00-35.81-26.826-64.86-62.312-64.86C 93.512,0.00, 64.756,29.05, 64.756,64.86
	l0.00,227.078 C 64.756,413.553, 156.189,512.00, 269.225,512.00l 140.77,0.00 c 35.479,0.00, 64.758-28.553, 64.758-64.361
	C 474.75,411.803, 447.625,384.375, 412.149,384.375z"></path></svg>