<?xml version="1.0" encoding="utf-8"?>
<!-- Generator: IcoMoon  -->
<!DOCTYPE svg PUBLIC "-//W3C//DTD SVG 1.1//EN" "http://www.w3.org/Graphics/SVG/1.1/DTD/svg11.dtd">
<svg width="511.9679870605469" height="512" viewBox="0 0 511.9679870605469 512" data-tags="umbrella, rain" style="margin-left: 0.0010004043579101563px; margin-top: 0px; " xmlns="http://www.w3.org/2000/svg" xmlns:xlink="http://www.w3.org/1999/xlink"><metadata><license name="CC BY-SA 3.0" href="http://creativecommons.org/licenses/by-sa/3.0/us/"></license><author name="P.J. Onori" href="http://somerandomdude.com"></author></metadata><path d="M 256.00,0.00C 114.88,0.00,0.00,114.848,0.00,256.00l 64.00,0.00 c0.00-13.216, 10.816-24.00, 24.00-24.00C 101.248,232.00, 112.00,242.784, 112.00,256.00l 64.00,0.00 
		c0.00-13.216, 10.816-24.00, 24.00-24.00c 13.248,0.00, 24.00,10.784, 24.00,24.00l0.00,160.00 c0.00,17.632-14.32,32.00-32.00,32.00c-17.632,0.00-32.00-14.368-32.00-32.00L 96.00,416.00 c0.00,52.944, 43.12,96.00, 96.00,96.00
		c 52.992,0.00, 96.00-43.056, 96.00-96.00L 288.00,256.00 c0.00-13.216, 10.816-24.00, 24.00-24.00c 13.248,0.00, 23.968,10.784, 23.968,24.00l 64.00,0.00 c0.00-13.216, 10.88-24.00, 24.00-24.00
		c 13.248,0.00, 24.00,10.784, 24.00,24.00l 64.00,0.00 C 511.968,114.848, 397.216,0.00, 256.00,0.00z"></path></svg>