<?xml version="1.0" encoding="utf-8"?>
<!-- Generator: IcoMoon  -->
<!DOCTYPE svg PUBLIC "-//W3C//DTD SVG 1.1//EN" "http://www.w3.org/Graphics/SVG/1.1/DTD/svg11.dtd">
<svg width="384" height="512" viewBox="0 0 384 512" data-tags="unlock_fill" style="margin-left: 4px; margin-top: 0px; " xmlns="http://www.w3.org/2000/svg" xmlns:xlink="http://www.w3.org/1999/xlink"><metadata><license name="CC BY-SA 3.0" href="http://creativecommons.org/licenses/by-sa/3.0/us/"></license><author name="P.J. Onori" href="http://somerandomdude.com"></author></metadata><path d="M 224.064,0.00C 135.808,0.00, 64.128,71.744, 64.128,160.00l 63.936,0.00 c0.00-52.944, 43.008-96.00, 96.00-96.00C 276.944,64.00, 320.00,107.056, 320.00,160.00l0.00,32.00 L0.00,192.00 l0.00,224.00 
		c0.00,52.944, 43.12,96.00, 96.00,96.00l 192.00,0.00 c 52.88,0.00, 96.00-43.056, 96.00-96.00L 384.00,160.00 C 384.00,71.744, 312.192,0.00, 224.064,0.00z M 192.00,384.00c-17.632,0.00-32.00-14.32-32.00-32.00s 14.368-32.00, 32.00-32.00
		c 17.744,0.00, 32.00,14.32, 32.00,32.00S 209.744,384.00, 192.00,384.00z"></path></svg>