<?xml version="1.0" encoding="utf-8"?>
<!-- Generator: IcoMoon  -->
<!DOCTYPE svg PUBLIC "-//W3C//DTD SVG 1.1//EN" "http://www.w3.org/Graphics/SVG/1.1/DTD/svg11.dtd">
<svg width="384" height="512" viewBox="0 0 384 512" data-tags="unlock_stroke" style="margin-left: 4px; margin-top: 0px; " xmlns="http://www.w3.org/2000/svg" xmlns:xlink="http://www.w3.org/1999/xlink"><metadata><license name="CC BY-SA 3.0" href="http://creativecommons.org/licenses/by-sa/3.0/us/"></license><author name="P.J. Onori" href="http://somerandomdude.com"></author></metadata><path d="M 224.064,0.00C 135.84,0.00, 64.096,71.808, 64.096,160.00l 64.00,0.00 c0.00-52.88, 43.024-96.00, 95.968-96.00S 320.00,107.12, 320.00,160.00l0.00,32.00 L0.00,192.00 l0.00,224.00 
			c0.00,52.992, 43.056,96.00, 95.968,96.00L 288.00,512.00 c 52.944,0.00, 96.00-43.008, 96.00-96.00L 384.00,160.00 C 384.00,71.808, 312.256,0.00, 224.064,0.00z M 288.00,448.00L 95.968,448.00 c-17.632,0.00-32.00-14.32-32.00-32.00L 63.968,256.00 L 320.00,256.00 l0.00,160.00 
			C 320.00,433.68, 305.632,448.00, 288.00,448.00zM 224.00,352.00c0.00,17.744-14.32,32.00-32.00,32.00s-32.00-14.256-32.00-32.00c0.00-17.632, 14.32-32.00, 32.00-32.00S 224.00,334.368, 224.00,352.00z"></path></svg>