<?xml version="1.0" encoding="utf-8"?>
<!-- Generator: IcoMoon  -->
<!DOCTYPE svg PUBLIC "-//W3C//DTD SVG 1.1//EN" "http://www.w3.org/Graphics/SVG/1.1/DTD/svg11.dtd">
<svg width="500" height="500" viewBox="0 0 500 500" data-tags="upload, cloud" style="margin-left: 0px; margin-top: 0px; " xmlns="http://www.w3.org/2000/svg" xmlns:xlink="http://www.w3.org/1999/xlink"><metadata><license name="CC BY-SA 3.0" href="http://creativecommons.org/licenses/by-sa/3.0/"></license><author name="Daniel Bruce" href="mailto:daniel@precinct.net"></author></metadata><path d="M 380.555,178.535c-6.894,0.00-13.64,0.598-20.215,1.699c-16.406-53.617-67.215-92.703-127.391-92.703
		c-73.449,0.00-132.981,58.203-132.981,130.008c0.00,6.406, 0.50,12.703, 1.418,18.871c-3.527-0.406-7.09-0.679-10.723-0.679
		c-49.941,0.00-90.43,39.582-90.43,88.394c0.00,48.828, 40.489,88.406, 90.43,88.406l 124.57,0.00 l0.00-95.00 l-52.50,0.00 l 87.50-115.00l 87.50,115.00l-52.50,0.00 l0.00,95.00 
		l 95.32,0.00 c 66.106,0.00, 119.68-52.383, 119.68-117.00C 500.235,230.918, 446.66,178.535, 380.555,178.535z"></path></svg>