<?xml version="1.0" encoding="utf-8"?>
<!-- Generator: IcoMoon  -->
<!DOCTYPE svg PUBLIC "-//W3C//DTD SVG 1.1//EN" "http://www.w3.org/Graphics/SVG/1.1/DTD/svg11.dtd">
<svg width="500" height="500" viewBox="0 0 500 500" data-tags="upload" style="margin-left: 0px; margin-top: 0px; " xmlns="http://www.w3.org/2000/svg" xmlns:xlink="http://www.w3.org/1999/xlink"><metadata><license name="CC BY-SA 3.0" href="http://creativecommons.org/licenses/by-sa/3.0/"></license><author name="Daniel Bruce" href="mailto:daniel@precinct.net"></author></metadata><path d="M 250.238,37.531l-135.00,126.992l 75.00,0.00 l0.00,123.008 l 120.00,0.00 L 310.238,164.524 l 75.00,0.00 L 250.238,37.531z M 483.726,326.086L 404.133,272.531l-49.078,0.00 
		l 85.008,65.215L 351.449,337.746 c-2.539,0.00-4.844,1.289-5.989,3.321l-20.43,55.879L 175.422,396.945 l-20.43-55.879
		c-1.133-2.031-3.446-3.321-5.984-3.321L 60.395,337.746 l 85.019-65.215l-49.094,0.00 L 16.742,326.086C 4.899,333.16-2.183,349.465, 0.992,362.317
		l 14.031,76.847c 3.183,12.851, 17.265,23.367, 31.289,23.367l 407.844,0.00 c 14.024,0.00, 28.102-10.515, 31.289-23.367l 14.024-76.847
		C 502.66,349.465, 495.57,333.16, 483.726,326.086z"></path></svg>