<?xml version="1.0" encoding="utf-8"?>
<!-- Generator: IcoMoon  -->
<!DOCTYPE svg PUBLIC "-//W3C//DTD SVG 1.1//EN" "http://www.w3.org/Graphics/SVG/1.1/DTD/svg11.dtd">
<svg width="500" height="500" viewBox="0 0 500 500" data-tags="user, profile, avatar" style="margin-left: 0px; margin-top: 0px; " xmlns="http://www.w3.org/2000/svg" xmlns:xlink="http://www.w3.org/1999/xlink"><metadata><license name="CC BY-SA 3.0" href="http://creativecommons.org/licenses/by-sa/3.0/"></license><author name="Daniel Bruce" href="mailto:daniel@precinct.net"></author></metadata><path d="M 383.242,361.226C 321.61,338.765, 301.914,319.82, 301.914,279.25c0.00-24.352, 18.817-16.395, 27.078-60.996
		c 3.429-18.496, 20.051-0.297, 23.235-42.535c0.00-16.832-9.074-21.015-9.074-21.015s 4.609-24.906, 6.418-44.078
		c 2.235-23.887-13.801-85.594-99.336-85.594c-85.539,0.00-101.582,61.707-99.336,85.594
		c 1.804,19.172, 6.414,44.078, 6.414,44.078s-9.07,4.184-9.07,21.015c 3.172,42.239, 19.793,24.039, 23.223,42.535
		c 8.27,44.602, 27.078,36.645, 27.078,60.996c0.00,40.571-19.688,59.516-81.317,81.977
		C 55.398,383.765, 15.235,406.735, 15.235,422.399c0.00,15.652,0.00,52.633,0.00,52.633l 235.00,0.00 l 235.00,0.00 c0.00,0.00,0.00-36.98,0.00-52.633
		C 485.235,406.735, 445.067,383.765, 383.242,361.226z"></path></svg>