<?xml version="1.0" encoding="utf-8"?>
<!-- Generator: IcoMoon  -->
<!DOCTYPE svg PUBLIC "-//W3C//DTD SVG 1.1//EN" "http://www.w3.org/Graphics/SVG/1.1/DTD/svg11.dtd">
<svg width="500" height="500" viewBox="0 0 500 500" data-tags="users, people, avatar" style="margin-left: 0px; margin-top: 0px; " xmlns="http://www.w3.org/2000/svg" xmlns:xlink="http://www.w3.org/1999/xlink"><metadata><license name="CC BY-SA 3.0" href="http://creativecommons.org/licenses/by-sa/3.0/"></license><author name="Daniel Bruce" href="mailto:daniel@precinct.net"></author></metadata><path d="M 500.235,462.531c0.00,0.00-0.989-91.445-6.769-100.926c-8.601-14.117-28.64-23.817-65.847-38.832
		c-37.082-14.976-48.938-27.602-48.938-54.656c0.00-16.235, 11.32-10.926, 16.301-40.656c 2.058-12.34, 12.059-0.203, 13.973-28.36
		c0.00-11.226-5.457-14.015-5.457-14.015s 2.773-16.602, 3.856-29.383c 1.347-15.93-8.309-57.063-59.773-57.063
		c-51.477,0.00-61.125,41.133-59.778,57.063c 1.086,12.781, 3.848,29.383, 3.848,29.383s-5.449,2.789-5.449,14.015
		c 1.914,28.156, 11.906,16.02, 13.976,28.36c 4.969,29.73, 16.297,24.422, 16.297,40.656c0.00,18.395-5.508,30.117-20.683,40.453
		c 81.016,39.168, 91.875,47.156, 91.875,82.172l0.00,71.789 L 500.235,462.531 z M 255.821,336.371c-49.453-19.973-65.254-36.809-65.254-72.867
		c0.00-21.648, 15.098-14.578, 21.727-54.219c 2.746-16.445, 16.086-0.27, 18.633-37.813c0.00-14.961-7.274-18.68-7.274-18.68
		s 3.699-22.14, 5.144-39.179c 1.797-21.235-11.074-76.082-79.707-76.082c-68.621,0.00-81.504,54.847-79.695,76.082
		c 1.446,17.039, 5.136,39.179, 5.136,39.179s-7.277,3.719-7.277,18.68c 2.558,37.543, 15.89,21.367, 18.645,37.813
		c 6.629,39.641, 21.727,32.571, 21.727,54.219c0.00,36.059-15.809,52.895-65.254,72.867c-15.066,6.082-42.136,15.508-42.136,38.179
		l0.00,87.981 l 347.344,0.00 c0.00,0.00,0.00-52.047,0.00-65.969C 347.578,375.883, 305.418,356.399, 255.821,336.371z"></path></svg>